<svg width="0" height="0" class="hidden">
  <symbol xmlns="http://www.w3.org/2000/svg" viewBox="0 0 90 28" id="logo">
    <path fill-rule="evenodd" clip-rule="evenodd" d="M21.037.969v20.484c0 .271.09.498.272.68a.917.917 0 00.677.273h3.485c.27 0 .495-.09.677-.273a.925.925 0 00.272-.68v-9.397c1.483-1.49 2.873-2.822 4.17-2.822 1.981 0 2.972.76 2.972 3.25v8.97c0 .27.09.497.272.679a.917.917 0 00.677.273h3.47a.936.936 0 00.965-.953v-8.969c0-2.541-.633-4.43-1.899-5.664-1.265-1.234-2.907-1.851-4.924-1.851-2.018 0-3.919.755-5.703 2.265V.97a.944.944 0 00-.272-.696A.917.917 0 0025.47 0h-3.485a.917.917 0 00-.677.273.944.944 0 00-.273.696zM2.396 20.437C.798 18.918 0 16.727 0 13.867c0-2.86.804-5.057 2.412-6.594C4.02 5.737 6.25 4.97 9.102 4.97c2.853 0 5.078.747 6.675 2.242 1.598 1.495 2.397 3.638 2.397 6.43v.89a.946.946 0 01-.273.696.936.936 0 01-.692.273H5.493c.103 1.281.469 2.213 1.096 2.797.628.583 1.632.875 3.011.875 1.38 0 2.324-.313 2.832-.938s1.482-.529 2.984-.318c1.503.21 1.841 1.005 1.793 1.256-.477 2.46-2.973 3.556-8.122 3.547-2.863 0-5.093-.76-6.69-2.282zm3.064-8.234h7.236c-.104-2.458-1.305-3.687-3.602-3.687-2.298 0-3.51 1.229-3.634 3.687zm40.315 11.828l2.038.266c1.239 0 2.16-.773 2.767-2.318.011-.028-.078-.042-.242-.069-.627-.102-2.355-.383-3.863-2.272-1.728-2.165-1.985-3-2.654-5.18v-.001l-.218-.704-2.319-7.547a.824.824 0 01-.046-.29c0-.109.065-.241.194-.398.13-.156.324-.24.584-.25l3.059.013c.3 0 .589.102.864.305.274.203.453.456.536.758l2.039 6.625c.508 1.625 1.024 2.75 1.548 3.375s1.143.937 1.86.937l3.096-10.937c.083-.302.246-.555.49-.758.243-.203.516-.305.817-.305h3.283c.259 0 .45.084.575.25.125.167.187.305.187.414 0 .11-.01.2-.031.274l-4.077 14.593c-.726 2.584-1.626 4.428-2.7 5.532C52.49 27.448 51.109 28 49.418 28l-.65-.003c-1.35-.015-2.33-.076-2.936-.184-.7-.125-1.139-.28-1.315-.461a.883.883 0 01-.265-.633V25a.96.96 0 01.265-.695.91.91 0 01.684-.274h.576zm16.369-2.75c-1.37-.958-2.054-2.312-2.054-4.062 0-1.75.687-3.094 2.062-4.032 1.374-.937 3.145-1.406 5.313-1.406h5.15c0-1.219-.254-2.067-.762-2.547-.508-.479-1.398-.718-2.668-.718-1.187 0-2.043.274-2.569.823l-.108.122c-.513.63-2.13.416-3.572.138-1.444-.278-1.537-1.014-1.408-1.397.724-2.156 3.486-3.233 8.287-3.233 2.468 0 4.45.554 5.943 1.664C77.253 7.743 78 9.458 78 11.78v9.672c0 .281-.088.51-.264.688a.924.924 0 01-.685.265h-3.003a.91.91 0 01-.685-.273.939.939 0 01-.264-.68v-.484c-1.64 1.177-3.53 1.763-5.672 1.758-2.142-.006-3.903-.487-5.282-1.446zm5.695-5.953h4.776v2.438c-1.483.937-3.023 1.406-4.62 1.406-.8 0-1.417-.182-1.852-.547a1.735 1.735 0 01-.654-1.39c0-.563.21-1.021.63-1.376.42-.354.993-.53 1.72-.53z"></path>
    <path fill-rule="evenodd" clip-rule="evenodd" d="M86 14a4 4 0 100-8 4 4 0 000 8z" fill="#1576D8"></path>
    <defs>
      <linearGradient id="paint0_linear" x1="0" y1="0" x2="0" y2="28" gradientUnits="userSpaceOnUse">
        <stop stop-color="#254A72"></stop>
        <stop offset="1" stop-color="#10243E"></stop>
      </linearGradient>
    </defs>
  </symbol>
  <symbol xmlns="http://www.w3.org/2000/svg" viewBox="0 0 13 16" id="arrow-collection">
    <path d="M5.938 1.094c-.313.312-.282.781 0 1.093l3.78 3.563H.75A.74.74 0 000 6.5v1c0 .438.313.75.75.75h8.969l-3.781 3.594a.814.814 0 000 1.094l.687.687c.313.281.781.281 1.063 0l6.093-6.094c.281-.281.281-.75 0-1.062L7.687.406c-.28-.281-.75-.281-1.062 0l-.688.688z"></path>
  </symbol>
  <symbol xmlns="http://www.w3.org/2000/svg" viewBox="0 0 17 16.17" id="online-payment">
    <path fill-rule="evenodd" clip-rule="evenodd" d="M9.663 9.618c.522-1.135.04-2.07-1.29-2.65l-2.203-.91a2.097 2.097 0 00-2.13.317l-2.026 1.66-.059.59-.095 4.835v.84h2.452l5 1.42c.632.18 1.31.054 1.834-.34 3.295-2.477 5.497-4.15 5.83-4.46.808-.75 1.127-1.586.55-2.41-.465-.666-1.25-.737-2.223-.296l-4.732 2.406-1.331-.423a1.67 1.67 0 00.423-.579z" fill="#1565D8"></path>
    <path opacity=".3" fill-rule="evenodd" clip-rule="evenodd" d="M14.21.86H13.2V.65a.63.63 0 10-1.26 0v.21h-.198a1.47 1.47 0 00-1.47 1.472v.421a1.47 1.47 0 001.47 1.472h1.668a.21.21 0 01.21.21v.42a.21.21 0 01-.21.21h-1.928a.63.63 0 00-1.21.226l-.012.386a.63.63 0 00.63.65h1.05v.203a.63.63 0 101.26 0v-.204h.21a1.47 1.47 0 001.47-1.47v-.42a1.47 1.47 0 00-1.47-1.472h-1.668a.21.21 0 01-.21-.21v-.422a.21.21 0 01.21-.21h1.921a.63.63 0 001.178-.312v-.32a.63.63 0 00-.63-.63zM1.44 6.95h.21v7.98h-.21a.63.63 0 000 1.26h.84a.63.63 0 00.63-.63V6.32a.63.63 0 00-.63-.63h-.84a.63.63 0 100 1.26z"></path>
  </symbol>
  <symbol xmlns="http://www.w3.org/2000/svg" viewBox="0 0 22 22" id="warranty">
    <path fill-rule="evenodd" clip-rule="evenodd" d="M18.703 4.935l-7.56-2.73a.42.42 0 00-.286 0l-7.56 2.73a.42.42 0 00-.277.395V11c0 4.452 2.66 7.407 7.871 8.806a.42.42 0 00.22-.001c5.21-1.436 7.869-4.39 7.869-8.805V5.33a.42.42 0 00-.277-.395zM8.1 10.265a.42.42 0 01.593.015l1.7 1.786 3.567-3.87a.42.42 0 01.618.569l-3.872 4.2a.42.42 0 01-.613.005l-2.008-2.111a.42.42 0 01.014-.594z"></path>
  </symbol>
  <symbol xmlns="http://www.w3.org/2000/svg" viewBox="0 0 22 22" id="quality">
    <path fill-rule="evenodd" clip-rule="evenodd" d="M6.534 8.744c1.104-1.57 1.793-3.37 2.069-5.407a.505.505 0 01.352-.414c1.902-.588 2.982.346 2.964 2.478-.003.414-.022.782-.063 1.344-.09 1.257-.083 1.6.057 1.83.136.222.575.298 1.613.1a24.07 24.07 0 001.02-.216c.16-.038 1.318-.32 1.614-.384.565-.122.97-.174 1.326-.152.964.06 1.476.68 1.565 1.87.155 2.096-.326 6.306-.806 7.856-.49 1.584-1.346 2.182-3.4 2.218-1.321.024-3.353.024-6.104 0a4.887 4.887 0 01-1.905-.406c.16-.33.248-.698.248-1.087V10.31c0-.592-.206-1.136-.55-1.566z" fill="#1565D8"></path>
    <path opacity=".3" fill-rule="evenodd" clip-rule="evenodd" d="M3.525 8.798C2.683 8.798 2 9.475 2 10.31v8.064c0 .835.683 1.512 1.525 1.512h1.017c.842 0 1.525-.677 1.525-1.512V10.31c0-.835-.683-1.512-1.525-1.512H3.525z"></path>
  </symbol>
  <symbol xmlns="http://www.w3.org/2000/svg" viewBox="0 0 23 21" id="shopping-cart">
    <path d="M20.625 12.297l1.836-8.125C22.578 3.586 22.148 3 21.523 3H6.211l-.352-1.719C5.742.851 5.352.5 4.922.5H.938A.925.925 0 000 1.438v.625C0 2.609.39 3 .938 3h2.695l2.773 13.438a2.183 2.183 0 00-1.093 1.875c0 1.21.976 2.187 2.187 2.187 1.172 0 2.188-.977 2.188-2.188 0-.585-.274-1.132-.665-1.562h8.165c-.391.43-.625.977-.625 1.563 0 1.21.976 2.187 2.187 2.187 1.172 0 2.188-.977 2.188-2.188 0-.859-.508-1.601-1.25-1.953l.195-.937c.156-.586-.313-1.172-.899-1.172H8.516L8.242 13h11.445c.43 0 .82-.273.938-.703z"></path>
  </symbol>
  <symbol xmlns="http://www.w3.org/2000/svg" viewBox="0 0 28 28" id="plus">
    <path d="M26 11h-9V2c0-1.063-.938-2-2-2h-2c-1.125 0-2 .938-2 2v9H2c-1.125 0-2 .938-2 2v2c0 1.125.875 2 2 2h9v9c0 1.125.875 2 2 2h2c1.063 0 2-.875 2-2v-9h9c1.063 0 2-.875 2-2v-2c0-1.063-.938-2-2-2z"></path>
  </symbol>
  <symbol xmlns="http://www.w3.org/2000/svg" viewBox="0 0 80 70" id="quote-left">
    <path d="M72.5 35H60V25c0-5.469 4.375-10 10-10h1.25c2.031 0 3.75-1.563 3.75-3.75v-7.5C75 1.719 73.281 0 71.25 0H70C56.094 0 45 11.25 45 25v37.5c0 4.219 3.281 7.5 7.5 7.5h20c4.063 0 7.5-3.281 7.5-7.5v-20c0-4.063-3.438-7.5-7.5-7.5zm-45 0H15V25c0-5.469 4.375-10 10-10h1.25c2.031 0 3.75-1.563 3.75-3.75v-7.5C30 1.719 28.281 0 26.25 0H25C11.094 0 0 11.25 0 25v37.5C0 66.719 3.281 70 7.5 70h20c4.063 0 7.5-3.281 7.5-7.5v-20c0-4.063-3.438-7.5-7.5-7.5z"></path>
  </symbol>
  <symbol xmlns="http://www.w3.org/2000/svg" viewBox="0 0 15 14" id="button-left">
    <path d="M8.317 12.938c.312-.313.281-.782 0-1.094L4.536 8.25h9a.74.74 0 00.75-.75v-1a.76.76 0 00-.75-.75h-9l3.78-3.563c.282-.312.313-.78 0-1.093L7.63.406a.774.774 0 00-1.062 0L.504 6.5a.684.684 0 000 1.031l6.063 6.094c.281.281.75.281 1.062 0l.688-.688z"></path>
  </symbol>
  <symbol xmlns="http://www.w3.org/2000/svg" viewBox="0 0 14 14" id="button-right">
    <path d="M5.938 1.094c-.313.312-.282.781 0 1.093l3.78 3.563H.75A.74.74 0 000 6.5v1c0 .438.313.75.75.75h8.969l-3.781 3.594a.814.814 0 000 1.094l.687.687c.313.281.781.281 1.063 0l6.093-6.094c.281-.281.281-.75 0-1.062L7.687.406c-.28-.281-.75-.281-1.062 0l-.688.688z" ></path>
  </symbol>
  <symbol xmlns="http://www.w3.org/2000/svg" viewBox="0 0 42 41" id="gmail">
    <g clip-path="url(#clip0)" fill="#5A7184">
      <rect opacity=".1" y=".404" width="42" height="40" rx="20"></rect>
      <path d="M28.958 20.925c0-.5-.062-.875-.125-1.281h-7.375V22.3h4.375c-.156 1.156-1.312 3.344-4.375 3.344-2.656 0-4.812-2.188-4.812-4.906 0-4.344 5.125-6.344 7.875-3.688l2.125-2.031a7.517 7.517 0 00-5.188-2.031 7.729 7.729 0 00-7.75 7.75 7.709 7.709 0 007.75 7.75c4.469 0 7.5-3.125 7.5-7.563z"></path>
    </g>
    <defs>
      <clipPath id="clip0">
        <path fill="#fff" transform="translate(0 .404)" d="M0 0h42v40.06H0z"></path>
      </clipPath>
    </defs>
  </symbol>
  <symbol xmlns="http://www.w3.org/2000/svg" viewBox="0 0 42 41" id="twitter">
    <g clip-path="url(#clip0)" fill="#5A7184">
      <rect opacity=".1" y=".213" width="42" height="40" rx="20"></rect>
      <path d="M27.677 17.296a6.952 6.952 0 001.625-1.688 6.15 6.15 0 01-1.875.5 3.206 3.206 0 001.438-1.812 6.931 6.931 0 01-2.063.812 3.281 3.281 0 00-2.406-1.03 3.28 3.28 0 00-3.282 3.28c0 .25.032.5.094.75a9.52 9.52 0 01-6.781-3.437 3.192 3.192 0 00-.438 1.656c0 1.125.563 2.125 1.47 2.719-.532-.031-1.063-.156-1.5-.406v.03a3.285 3.285 0 002.624 3.22c-.25.062-.562.125-.843.125-.22 0-.407-.032-.626-.063a3.266 3.266 0 003.063 2.281 6.597 6.597 0 01-4.063 1.407c-.28 0-.53-.032-.78-.063 1.437.938 3.155 1.469 5.03 1.469 6.032 0 9.313-4.969 9.313-9.313v-.437z"></path>
    </g>
    <defs>
      <clipPath id="clip0">
        <path fill="#fff" transform="translate(0 .213)" d="M0 0h42v40.06H0z"></path>
      </clipPath>
    </defs>
  </symbol>
  <symbol xmlns="http://www.w3.org/2000/svg" viewBox="0 0 40 41" id="linkedin">
    <g clip-path="url(#clip0)" fill="#5A7184">
      <rect opacity=".1" y=".404" width="40" height="40" rx="20"></rect>
      <path d="M26.333 13.738H14.302c-.531 0-.969.468-.969 1.03v11.97c0 .562.438 1 .969 1h12.031c.532 0 1-.438 1-1v-11.97c0-.562-.468-1.03-1-1.03zm-8.781 12h-2.063V19.08h2.063v6.657zm-1.031-7.594c-.688 0-1.219-.531-1.219-1.188a1.22 1.22 0 011.219-1.218c.656 0 1.187.562 1.187 1.218 0 .657-.531 1.188-1.187 1.188zm8.812 7.594H23.24v-3.25c0-.75 0-1.75-1.063-1.75-1.094 0-1.25.843-1.25 1.718v3.282h-2.063V19.08h1.97v.907h.03c.282-.532.97-1.094 1.97-1.094 2.093 0 2.5 1.406 2.5 3.187v3.657z"></path>
    </g>
    <defs>
      <clipPath id="clip0">
        <path fill="#fff" transform="translate(0 .404)" d="M0 0h40v40.06H0z"></path>
      </clipPath>
    </defs>
  </symbol>
  <symbol xmlns="http://www.w3.org/2000/svg" viewBox="0 0 40 41" id="insta">
    <g clip-path="url(#clip0)" fill="#5A7184">
      <rect opacity=".1" y=".404" width="40" height="40" rx="20"></rect>
      <path d="M20.333 17.144c-2 0-3.593 1.625-3.593 3.594 0 2 1.593 3.593 3.593 3.593a3.594 3.594 0 003.594-3.593c0-1.97-1.625-3.594-3.594-3.594zm0 5.937a2.34 2.34 0 01-2.343-2.343c0-1.282 1.03-2.313 2.343-2.313a2.307 2.307 0 012.313 2.313c0 1.312-1.032 2.343-2.313 2.343zm4.563-6.062a.84.84 0 00-.844-.844.84.84 0 00-.844.844.84.84 0 00.844.844.84.84 0 00.844-.844zm2.375.844c-.063-1.125-.313-2.125-1.125-2.938-.813-.813-1.813-1.063-2.938-1.125-1.156-.063-4.625-.063-5.781 0-1.125.063-2.094.313-2.938 1.125-.812.813-1.062 1.813-1.125 2.938-.062 1.156-.062 4.625 0 5.78.063 1.126.313 2.095 1.125 2.938.844.813 1.813 1.063 2.938 1.125 1.156.063 4.625.063 5.781 0 1.125-.062 2.125-.312 2.938-1.125.812-.843 1.062-1.812 1.125-2.937.062-1.156.062-4.625 0-5.781zm-1.5 7c-.219.625-.719 1.093-1.313 1.343-.937.375-3.125.282-4.125.282-1.031 0-3.218.093-4.125-.282a2.37 2.37 0 01-1.343-1.343c-.376-.907-.282-3.094-.282-4.125 0-1-.094-3.188.281-4.125a2.41 2.41 0 011.344-1.313c.907-.375 3.094-.281 4.125-.281 1 0 3.188-.094 4.125.281.594.219 1.063.719 1.313 1.313.375.937.281 3.125.281 4.125 0 1.03.094 3.218-.281 4.125z"></path>
    </g>
    <defs>
      <clipPath id="clip0">
        <path fill="#fff" transform="translate(0 .404)" d="M0 0h40v40.06H0z"></path>
      </clipPath>
    </defs>
  </symbol>
    <symbol xmlns="http://www.w3.org/2000/svg" viewBox="0 0 18 17" id="close">
    <path d="M9 6.695L15.222.472a1.1 1.1 0 011.641 1.46l-.085.096-6.223 6.222 6.223 6.222a1.1 1.1 0 01.085 1.46l-.085.096a1.1 1.1 0 01-1.46.085l-.096-.085L9 9.805l-6.222 6.223a1.1 1.1 0 01-1.46.085l-.096-.085a1.1 1.1 0 01-.085-1.46l.085-.096L7.445 8.25 1.222 2.028a1.1 1.1 0 01-.085-1.46l.085-.096a1.1 1.1 0 011.46-.085l.096.085L9 6.695 15.222.472 9 6.695z" fill="#183B56"></path>
  </symbol>
</svg>